<svg width="74" height="75" viewBox="0 0 74 75" fill="none" xmlns="http://www.w3.org/2000/svg">
<path opacity="0.35" d="M17.39 69.75C12.2892 69.75 8.14001 65.5448 8.14001 60.375V17.625C8.14001 12.4553 12.2892 8.25 17.39 8.25H59.57C64.6708 8.25 68.82 12.4553 68.82 17.625V60.375C68.82 65.5448 64.6708 69.75 59.57 69.75H17.39Z" fill="black"/>
<path d="M15.91 68.25C10.8092 68.25 6.65997 64.0448 6.65997 58.875V16.125C6.65997 10.9552 10.8092 6.75 15.91 6.75H58.09C63.1908 6.75 67.34 10.9552 67.34 16.125V58.875C67.34 64.0448 63.1908 68.25 58.09 68.25H15.91Z" fill="#F2F2F2"/>
<path d="M11.47 58.875V16.125C11.47 13.6395 13.4576 11.625 15.91 11.625H58.09C60.5423 11.625 62.53 13.6395 62.53 16.125V58.875C62.53 61.3605 60.5423 63.375 58.09 63.375H15.91C13.4576 63.375 11.47 61.3605 11.47 58.875Z" fill="#E1AEB9"/>
<path d="M58.09 64.5H15.91C12.8493 64.5 10.36 61.977 10.36 58.875V16.125C10.36 13.023 12.8493 10.5 15.91 10.5H58.09C61.1506 10.5 63.64 13.023 63.64 16.125V58.875C63.64 61.977 61.1506 64.5 58.09 64.5ZM15.91 12.75C14.074 12.75 12.58 14.2642 12.58 16.125V58.875C12.58 60.7357 14.074 62.25 15.91 62.25H58.09C59.9259 62.25 61.42 60.7357 61.42 58.875V16.125C61.42 14.2642 59.9259 12.75 58.09 12.75H15.91Z" fill="#515151"/>
<path d="M55.3046 36.75H50.32V56.25H42.92V36.75H38.48V30.75H42.92V27.135C42.9229 21.873 45.0793 18.75 51.1961 18.75H56.24V24.75H52.8552C50.4739 24.75 50.32 25.65 50.32 27.3345V30.75H56.24L55.3046 36.75Z" fill="#F2F2F2"/>
</svg>
