<svg width="75" height="75" viewBox="0 0 75 75" fill="none" xmlns="http://www.w3.org/2000/svg">
<path opacity="0.35" d="M24.375 69.75C15.4838 69.75 8.25 62.5163 8.25 53.625V24.375C8.25 15.4838 15.4838 8.25 24.375 8.25H53.625C62.5163 8.25 69.75 15.4838 69.75 24.375V53.625C69.75 62.5163 62.5163 69.75 53.625 69.75H24.375Z" fill="black"/>
<path d="M22.875 68.25C13.9838 68.25 6.75 61.0163 6.75 52.125V22.875C6.75 13.9838 13.9838 6.75 22.875 6.75H52.125C61.0163 6.75 68.25 13.9838 68.25 22.875V52.125C68.25 61.0163 61.0163 68.25 52.125 68.25H22.875Z" fill="#F2F2F2"/>
<path d="M52.125 63.375H22.875C16.662 63.375 11.625 58.338 11.625 52.125V22.875C11.625 16.662 16.662 11.625 22.875 11.625H52.125C58.338 11.625 63.375 16.662 63.375 22.875V52.125C63.375 58.338 58.338 63.375 52.125 63.375Z" fill="#E1AEB9"/>
<path d="M52.125 64.5H22.875C16.0515 64.5 10.5 58.9485 10.5 52.125V22.875C10.5 16.0515 16.0515 10.5 22.875 10.5H52.125C58.9485 10.5 64.5 16.0515 64.5 22.875V52.125C64.5 58.9485 58.9485 64.5 52.125 64.5ZM22.875 12.75C17.292 12.75 12.75 17.292 12.75 22.875V52.125C12.75 57.708 17.292 62.25 22.875 62.25H52.125C57.708 62.25 62.25 57.708 62.25 52.125V22.875C62.25 17.292 57.708 12.75 52.125 12.75H22.875Z" fill="#515151"/>
<path d="M37.4963 17.25C31.9958 17.25 31.3058 17.274 29.1458 17.3723C26.9895 17.4713 25.518 17.8125 24.2303 18.3135C22.8983 18.831 21.768 19.5225 20.643 20.649C19.5165 21.7747 18.8243 22.9042 18.3053 24.2362C17.8035 25.5247 17.4615 26.9962 17.364 29.1517C17.2673 31.3117 17.2418 32.0025 17.2418 37.503C17.2418 43.0035 17.2665 43.6912 17.364 45.8512C17.463 48.0075 17.8043 49.479 18.3053 50.7667C18.8228 52.0987 19.515 53.229 20.6408 54.354C21.7658 55.4805 22.896 56.1742 24.2273 56.6917C25.5158 57.1927 26.988 57.534 29.1435 57.633C31.3035 57.7312 31.9935 57.7552 37.4933 57.7552C42.9938 57.7552 43.6823 57.7312 45.8423 57.633C47.9985 57.534 49.4715 57.1927 50.76 56.6917C52.0913 56.1742 53.22 55.4805 54.345 54.354C55.4715 53.2282 56.1638 52.0987 56.6828 50.7667C57.1808 49.4782 57.522 48.0067 57.624 45.8512C57.7208 43.6912 57.7463 43.0027 57.7463 37.5022C57.7463 32.0017 57.7208 31.3117 57.624 29.1517C57.5228 26.9955 57.1808 25.524 56.6828 24.2362C56.1638 22.9042 55.4715 21.774 54.345 20.649C53.2185 19.5225 52.092 18.8302 50.7585 18.3135C49.4678 17.8125 47.9948 17.4713 45.8393 17.3723C43.68 17.274 42.9923 17.25 37.4903 17.25H37.4963ZM35.6798 20.8995C36.219 20.8987 36.8205 20.8995 37.4963 20.8995C42.9038 20.8995 43.5443 20.919 45.6795 21.0157C47.6543 21.1057 48.726 21.4357 49.44 21.7132C50.385 22.08 51.0593 22.5188 51.7673 23.2283C52.476 23.937 52.9148 24.612 53.283 25.557C53.5605 26.2702 53.8905 27.342 53.9805 29.316C54.0773 31.4512 54.099 32.0925 54.099 37.497C54.099 42.9015 54.078 43.5435 53.9805 45.678C53.8905 47.6527 53.5605 48.7245 53.283 49.437C52.9163 50.382 52.476 51.0547 51.7673 51.7635C51.0585 52.4722 50.3858 52.911 49.44 53.2785C48.7268 53.5567 47.6543 53.886 45.6795 53.976C43.5443 54.0727 42.903 54.0945 37.4963 54.0945C32.0888 54.0945 31.4475 54.0735 29.313 53.976C27.3383 53.8845 26.2665 53.5552 25.5525 53.2777C24.6075 52.911 23.9325 52.4715 23.2238 51.7627C22.515 51.054 22.0763 50.3805 21.708 49.4347C21.4305 48.7215 21.1005 47.6497 21.0105 45.6757C20.9138 43.5405 20.8943 42.8992 20.8943 37.491C20.8943 32.0827 20.9138 31.4445 21.0105 29.31C21.1005 27.3353 21.4305 26.2635 21.708 25.5495C22.0748 24.6045 22.515 23.9295 23.2238 23.2207C23.9325 22.512 24.6075 22.0733 25.5525 21.705C26.2665 21.4268 27.3383 21.0975 29.313 21.0068C31.1813 20.922 31.905 20.8972 35.6798 20.8927V20.8995V20.8995ZM48.3068 24.2625C46.965 24.2625 45.8768 25.35 45.8768 26.6917C45.8768 28.0335 46.965 29.1217 48.3068 29.1217C49.6485 29.1217 50.7368 28.0335 50.7368 26.6917C50.7368 25.35 49.6485 24.2617 48.3068 24.2617V24.2625ZM37.4963 27.102C31.7528 27.102 27.096 31.7587 27.096 37.5022C27.096 43.2457 31.7528 47.9002 37.4963 47.9002C43.2398 47.9002 47.895 43.2457 47.895 37.5022C47.895 31.7587 43.2398 27.102 37.4963 27.102ZM37.4963 30.7515C41.2245 30.7515 44.247 33.774 44.247 37.5022C44.247 41.2305 41.2245 44.253 37.4963 44.253C33.768 44.253 30.7455 41.2305 30.7455 37.5022C30.7455 33.774 33.768 30.7515 37.4963 30.7515Z" fill="#F2F2F2"/>
</svg>
