<svg xmlns="http://www.w3.org/2000/svg" width="93.815" height="82.808" viewBox="0 0 93.815 82.808">
  <g id="quote-sign" transform="translate(0.001 -57.197)" opacity="0.52">
    <path id="Caminho_9" data-name="Caminho 9" d="M591.688,57.2h-29.25a4.813,4.813,0,0,0-4.811,4.811v29.25a4.813,4.813,0,0,0,4.811,4.811h14q-.274,11.488-5.33,18.4-3.983,5.456-12.056,9.025a4.8,4.8,0,0,0-2.386,6.456l3.464,7.312a4.81,4.81,0,0,0,6.264,2.348,53.486,53.486,0,0,0,16.136-10.468,40.618,40.618,0,0,0,11-17.5Q596.5,101.88,596.5,85v-23A4.813,4.813,0,0,0,591.688,57.2Z" transform="translate(-502.685)" fill="#e5cdd0"/>
    <path id="Caminho_10" data-name="Caminho 10" d="M10.2,139.588A54.389,54.389,0,0,0,26.26,129.138,40.4,40.4,0,0,0,37.325,111.7Q40.3,102.02,40.3,85v-23A4.813,4.813,0,0,0,35.487,57.2H6.237a4.813,4.813,0,0,0-4.811,4.811v29.25a4.813,4.813,0,0,0,4.811,4.811h14q-.274,11.488-5.33,18.4-3.983,5.456-12.056,9.025a4.8,4.8,0,0,0-2.386,6.456l3.454,7.293A4.824,4.824,0,0,0,10.2,139.588Z" transform="translate(0 0)" fill="#e5cdd0"/>
  </g>
</svg>
