<svg width="76" height="76" viewBox="0 0 76 76" fill="none" xmlns="http://www.w3.org/2000/svg">
<path opacity="0.35" fill-rule="evenodd" clip-rule="evenodd" d="M11.8689 72.9593C10.3443 72.9593 8.91478 72.3627 7.84242 71.2797C6.42198 69.8349 5.87402 67.7381 6.40526 65.7993L9.72114 53.691C7.56502 49.2115 6.43262 44.2579 6.43566 39.2685C6.44326 20.9684 21.3362 6.08002 39.6355 6.08002C48.5123 6.08306 56.8518 9.5403 63.1203 15.8141C69.3887 22.0887 72.8384 30.4274 72.8353 39.2935C72.8285 57.5943 57.9348 72.4827 39.6355 72.4827C34.8901 72.4812 30.1537 71.4484 25.8468 69.4861L13.3061 72.7738C12.885 72.8916 12.3819 72.9593 11.8689 72.9593Z" fill="black"/>
<path fill-rule="evenodd" clip-rule="evenodd" d="M10.3489 71.4392C8.82432 71.4392 7.39476 70.8426 6.3224 69.7596C4.90196 68.3149 4.354 66.218 4.88524 64.2793L8.20112 52.171C6.045 47.6915 4.9126 42.7378 4.91564 37.7484C4.92324 19.4484 19.8162 4.56 38.1155 4.56C46.9923 4.56304 55.3318 8.02028 61.6002 14.2941C67.8687 20.5686 71.3184 28.9074 71.3153 37.7735C71.3085 56.0743 56.4148 70.9627 38.1155 70.9627C33.37 70.9612 28.6337 69.9284 24.3268 67.966L11.786 71.2538C11.365 71.3716 10.8619 71.4392 10.3489 71.4392Z" fill="#F2F2F2"/>
<path fill-rule="evenodd" clip-rule="evenodd" d="M10.3489 66.4992C10.1573 66.4992 9.9719 66.424 9.83434 66.2849C9.6527 66.101 9.58202 65.8327 9.65042 65.5842L13.4778 51.6093C11.1051 47.3951 9.85334 42.6094 9.85638 37.7507C9.8617 22.1722 22.5385 9.5 38.1155 9.5C45.6714 9.50304 52.7705 12.4458 58.1057 17.7855C63.4409 23.1268 66.3783 30.2244 66.3753 37.7712C66.3692 53.3482 53.6917 66.022 38.1155 66.022C33.4909 66.0204 28.9149 64.8789 24.8542 62.7198L10.5328 66.4742C10.472 66.4916 10.4112 66.4992 10.3489 66.4992Z" fill="#F2F2F2"/>
<path fill-rule="evenodd" clip-rule="evenodd" d="M10.3489 67.6392C9.84731 67.6392 9.37611 67.4432 9.02347 67.0867C8.55607 66.6117 8.37519 65.9209 8.54999 65.2825L12.255 51.7545C9.93547 47.4726 8.71263 42.6413 8.71567 37.7499C8.72251 21.5445 21.9108 8.35999 38.1155 8.35999C45.9754 8.36303 53.3611 11.4243 58.9122 16.9799C64.4632 22.5363 67.5184 29.9204 67.5154 37.7712C67.5093 53.9775 54.321 67.162 38.1155 67.162C33.4636 67.1604 28.8412 66.0455 24.7175 63.9342L10.8224 67.5777C10.6826 67.6164 10.5169 67.6392 10.3489 67.6392ZM10.2425 65.3729C10.2372 65.3744 10.2311 65.376 10.2258 65.3775L10.2425 65.3729ZM38.1155 10.64C23.1678 10.64 11.0018 22.8023 10.9957 37.7515C10.9934 42.4095 12.195 47.0083 14.4704 51.0507C14.6178 51.3121 14.6558 51.6215 14.5768 51.911L10.9394 65.1905L24.5647 61.6177C24.8414 61.5448 25.1355 61.5798 25.3886 61.7143C29.2843 63.786 33.6855 64.8812 38.1155 64.8827C53.0632 64.8827 65.2293 52.7204 65.2346 37.7712C65.2376 30.5292 62.4188 23.7173 57.2987 18.5919C52.1793 13.4664 45.3659 10.643 38.1155 10.64Z" fill="#515151"/>
<path fill-rule="evenodd" clip-rule="evenodd" d="M54.0946 21.7922C49.8287 17.5233 44.1583 15.1711 38.1232 15.1703C25.663 15.1703 15.5291 25.2996 15.5238 37.7515C15.5223 42.0189 16.7162 46.173 18.978 49.7709L19.5161 50.6251L17.233 58.9577L25.7838 56.7157L26.6099 57.2052C30.077 59.264 34.0541 60.3516 38.108 60.3531H38.1163C50.5674 60.3531 60.7012 50.2223 60.7058 37.7697C60.7066 31.7361 58.3604 26.0611 54.0946 21.7922Z" fill="#E1AEB9"/>
<path fill-rule="evenodd" clip-rule="evenodd" d="M31.2329 26.2428C30.7184 25.0975 30.1757 25.0739 29.684 25.0534C29.282 25.0359 28.8237 25.0374 28.3654 25.0374C27.9071 25.0374 27.1616 25.21 26.5308 25.8985C25.9 26.5871 24.1216 28.2507 24.1216 31.6358C24.1216 35.0208 26.587 38.2926 26.9305 38.7509C27.2741 39.2092 31.6904 46.3775 38.6832 49.1363C44.4941 51.4277 45.6775 50.9724 46.9398 50.8577C48.2014 50.7429 51.0104 49.194 51.5834 47.5874C52.1565 45.9808 52.1565 44.6044 51.9855 44.3171C51.8129 44.0298 51.3547 43.8588 50.6669 43.5138C49.9798 43.1688 46.5963 41.5051 45.9655 41.2764C45.3347 41.0476 44.8764 40.9328 44.4166 41.6214C43.9583 42.3084 42.6397 43.8588 42.2385 44.3171C41.8364 44.7769 41.4351 44.8347 40.7473 44.4896C40.0595 44.1446 37.8441 43.4196 35.2145 41.0757C33.1694 39.2525 31.7892 37.0006 31.3872 36.3113C30.9851 35.6242 31.3439 35.2511 31.6889 34.9076C31.9975 34.599 32.3767 34.1042 32.7217 33.7022C33.0653 33.3002 33.18 33.0136 33.4088 32.5554C33.6383 32.0956 33.5235 31.6943 33.351 31.35C33.1815 31.0057 31.8447 27.6032 31.2329 26.2428Z" fill="#F2F2F2"/>
</svg>
